<svg xmlns="http://www.w3.org/2000/svg" xmlns:xlink="http://www.w3.org/1999/xlink" width="798px" height="618px" viewBox="0 0 798 618" version="1.1">
    <title>Diploma</title>
    <defs>
        <polygon id="path-1" points="0.816406 0 38 0 38 50.34375 0.816406 50.34375"/>
        <polygon id="path-3" points="0 0 37.566406 0 37.566406 50.34375 0 50.34375"/>
        <polygon id="path-5" points="0 0.34375 58 0.34375 58 57 0 57"/>
        <polygon id="path-7" points="0.574219 0.34375 76.324219 0.34375 76.324219 76.09375 0.574219 76.09375"/>
    </defs>
    <g id="Page-1" stroke="none" stroke-width="1" fill="none" fill-rule="evenodd">
        <g id="Body">
            <rect id="Rectangle" fill="#FFFFF0" x="0" y="0" width="798" height="618"/>
            <g id="Borders" transform="translate(27.000000, 34.000000)" stroke="#114851" stroke-width="3">
                <rect id="Outer" x="0" y="12" width="742" height="528"/>
                <rect id="Middle" x="11.480469" y="23.828125" width="719" height="505"/>
                <rect id="Inner" x="21.5" y="1.5" width="697" height="548"/>
            </g>
            <text id="DIPLOMA" x="50%" y="127" text-anchor="middle" font-family="Coustard-Regular, Coustard" font-size="36" letter-spacing="0.9" fill="#114851">
                DIPLOM
            </text>
            <text id="TOP_TEXT" x="50%" y="189" text-anchor="middle" font-family="GlacialIndifference-Regular, Glacial Indifference" font-size="18" fill="#AB5A2F">
                Diplomet tildeles Orkestermedlem i Gamle Oslo String Orchestra
            </text>
            <text id="MEMBER_NAME" x="50%" y="250" text-anchor="middle" font-family="Coustard-Regular, Coustard" font-size="50" letter-spacing="1.25" fill="#114851"/>
            <text id="BOTTOM_TEXT" x="50%" y="364" text-anchor="middle" font-family="GlacialIndifference-Regular, Glacial Indifference" font-size="18" fill="#AB5A2F">
                for vel gjennomført program våren 2021
            </text>
            <g id="G-Clef-Seal" transform="translate(71.000000, 435.000000)">
                <g id="Clipped">
                    <mask id="mask-8" fill="white">
                        <use xlink:href="#path-7"/>
                    </mask>
                    <g id="Path"/>
                    <polygon id="Path" fill="#AB5A2F" mask="url(#mask-8)" points="74.886719 38.203125 76.28125 35.085938 74.386719 32.222656 75.265625 28.902344 72.917969 26.402344 73.21875 22.996094 70.492188 20.902344 70.234375 17.496094 67.191406 15.890625 66.371094 12.554688 63.113281 11.464844 61.75 8.3125 58.355469 7.769531 56.507812 4.890625 53.070312 4.921875 50.75 2.375 47.375 2.964844 44.660156 0.84375 41.417969 1.980469 38.40625 0.328125 35.40625 1.980469 32.164062 0.84375 29.449219 2.964844 26.074219 2.375 23.753906 4.921875 20.316406 4.890625 18.46875 7.769531 15.074219 8.3125 13.710938 11.464844 10.453125 12.554688 9.632812 15.890625 6.589844 17.496094 6.332031 20.902344 3.605469 22.996094 3.90625 26.402344 1.558594 28.902344 2.4375 32.222656 0.53125 35.085938 1.9375 38.203125 0.53125 41.339844 2.4375 44.1875 1.558594 47.507812 3.90625 50.023438 3.605469 53.429688 6.332031 55.507812 6.589844 58.929688 9.632812 60.535156 10.453125 63.867188 13.710938 64.960938 15.074219 68.097656 18.46875 68.640625 20.316406 71.519531 23.753906 71.503906 26.074219 74.035156 29.449219 73.460938 32.164062 75.578125 35.40625 74.429688 38.40625 76.078125 41.417969 74.429688 44.660156 75.578125 47.375 73.460938 50.75 74.035156 53.070312 71.503906 56.507812 71.519531 58.355469 68.640625 61.75 68.097656 63.113281 64.945312 66.371094 63.855469 67.191406 60.535156 70.234375 58.929688 70.492188 55.507812 73.21875 53.429688 72.917969 50.023438 75.265625 47.507812 74.386719 44.1875 76.28125 41.339844">
                    </polygon>
                </g>
                <path d="M42.355469,52.992188 L40.085938,41.945312 C40.625,41.9375 41.128906,41.980469 41.554688,42.039062 C47.78125,42.84375 46.863281,48.667969 45.347656,50.390625 C44.359375,51.515625 43.355469,52.363281 42.355469,52.992188 Z M30.214844,50.8125 C25.714844,44.246094 32.890625,36.484375 36.402344,33.28125 C36.480469,33.542969 36.921875,35.046875 37.523438,37.257812 C35.195312,37.820312 33.582031,39.417969 32.757812,40.875 C28.675781,48.097656 35.125,52.328125 35.125,52.328125 C37.28125,53.492188 36.644531,51.589844 36.644531,51.589844 C34.382812,49.652344 34.878906,46.902344 34.878906,46.902344 C35.347656,43.632812 37.066406,42.449219 38.78125,42.085938 C39.679688,45.679688 40.628906,49.863281 41.238281,53.605469 C36.417969,55.867188 31.878906,53.242188 30.214844,50.8125 Z M39.59375,14.648438 C41.765625,12.113281 42.5625,13.0625 42.5625,13.0625 C45.636719,20.359375 37.40625,25.542969 37.40625,25.542969 C36.273438,22.632812 37.421875,17.1875 39.59375,14.648438 Z M45.089844,38.898438 C42.804688,37.511719 40.796875,37.007812 39.082031,37.054688 L38.023438,31.890625 C38.113281,31.816406 38.164062,31.78125 38.164062,31.78125 C50.566406,22.367188 43.144531,9.996094 43.144531,9.996094 C41.980469,6.929688 39.964844,7.777344 39.964844,7.777344 C31.0625,15.074219 35.832031,27.234375 35.832031,27.234375 C30.953125,30.40625 26.34375,36.382812 25.921875,42.726562 C25.496094,49.070312 28.09375,53.457031 34.1875,55.574219 C37.023438,56.558594 39.585938,56.175781 41.519531,55.488281 C41.910156,58.390625 42.027344,60.886719 41.664062,62.417969 C41.136719,64.625 38.816406,69.398438 33.269531,65.910156 L33.269531,65.691406 C35.296875,65.691406 36.945312,64.050781 36.945312,62.023438 C36.945312,60 35.296875,58.359375 33.269531,58.359375 C31.242188,58.359375 29.59375,60 29.59375,62.023438 C29.59375,62.117188 29.601562,62.210938 29.609375,62.300781 C29.609375,62.300781 29.367188,68.304688 36.113281,68.484375 C36.113281,68.484375 42.667969,69.472656 43.410156,62.210938 C43.566406,60.679688 43.484375,59.648438 42.988281,56.074219 L42.757812,54.96875 C44.242188,54.257812 45.125,53.492188 45.125,53.492188 C51.730469,46.957031 48.210938,40.800781 45.089844,38.902344" id="Shape" fill="#FFFFFF"/>
            </g>
            <svg id="Dirigent" x="187" y="453" width="171" text-anchor="middle">
                <line id="Left-Signature-Line" x1="0.5" y1="0.5" x2="171.5" y2="0.5" stroke="#114851" stroke-width="3" stroke-linecap="square"/>
                <text id="CONDUCTOR_NAME" x="50%" y="27" font-family="Coustard-Regular, Coustard" font-size="16" fill="#AB5A2F">
                    Mira Aas
                </text>
                <text id="DIRIGENT" x="50%" y="51" font-family="GlacialIndifference-Regular, Glacial Indifference" font-size="12" fill="#AB5A2F">
                    DIRIGENT
                </text>
            </svg>
            <svg id="Styreleder" x="424" y="453" width="171" text-anchor="middle">
                <line id="Right-Signature-Line" x1="0.0" y1="0.5" x2="171.0" y2="0.5" stroke="#114851" stroke-linecap="square" stroke-width="3"/>
                <text id="CEO_NAME" font-family="Coustard-Regular, Coustard" font-size="16" fill="#AB5A2F">
                    <tspan x="50%" y="23.671875">Cameron Lowell</tspan>
                    <tspan x="50%" y="41.671875">Palmer</tspan>
                </text>
                <text id="KOORDINATOR" x="50%" y="64" font-family="GlacialIndifference-Regular, Glacial Indifference" font-size="12" fill="#AB5A2F">
                    KOORDINATOR
                </text>
            </svg>
            <g id="Right-Seal" transform="translate(653.000000, 435.000000)">
                <g id="Left-Ribbon" transform="translate(0.000000, 31.000000)">
                    <mask id="mask-2" fill="white">
                        <use xlink:href="#path-1"/>
                    </mask>
                    <g id="Path"/>
                    <polygon id="Path" fill="#114851" mask="url(#mask-2)" points="27.300781 4.671875 17.148438 0.71875 0.816406 42.921875 13.601562 40.105469 21.128906 50.828125 37.457031 8.625">
                    </polygon>
                </g>
                <g id="Right-Ribbon" transform="translate(24.000000, 31.000000)">
                    <mask id="mask-4" fill="white">
                        <use xlink:href="#path-3"/>
                    </mask>
                    <g id="Path"/>
                    <polygon id="Path" fill="#114851" mask="url(#mask-4)" points="21.238281 0.71875 0.925781 8.625 17.257812 50.828125 24.78125 40.105469 37.566406 42.921875">
                    </polygon>
                </g>
                <g id="Seal-Edge" transform="translate(2.000000, 0.000000)">
                    <mask id="mask-6" fill="white">
                        <use xlink:href="#path-5"/>
                    </mask>
                    <g id="Path"/>
                    <path d="M57.011719,32.746094 L54.78125,30.074219 C54.78125,30 54.78125,29.925781 54.78125,29.851562 L57.191406,27.804688 L54.671875,25.644531 C54.671875,25.570312 54.636719,25.496094 54.636719,25.425781 L56.753906,22.863281 L53.722656,21.066406 C53.722656,21.03125 53.722656,20.996094 53.6875,20.957031 L55.332031,18.066406 L52.003906,16.824219 C52.003906,16.785156 51.96875,16.785156 51.96875,16.75 L53.101562,13.601562 L49.632812,12.980469 C49.632812,12.980469 49.59375,12.941406 49.59375,12.941406 L50.144531,9.648438 L46.5625,9.613281 C46.5625,9.613281 46.5625,9.613281 46.527344,9.574219 L46.527344,6.207031 L42.984375,6.828125 L42.363281,3.5 L38.964844,4.707031 L37.796875,1.523438 L34.691406,3.316406 L32.972656,0.386719 L30.125,2.730469 C30.085938,2.730469 30.085938,2.730469 30.050781,2.730469 L28.042969,0.277344 L25.851562,2.875 C25.8125,2.875 25.777344,2.875 25.742188,2.875 L23.109375,0.679688 L21.320312,3.792969 L18.398438,2.109375 L17.15625,5.476562 L13.976562,4.339844 L13.320312,7.855469 L9.996094,7.269531 L9.960938,10.894531 L6.5625,10.894531 L7.183594,14.441406 L3.859375,15.066406 L5.0625,18.433594 L1.886719,19.605469 L3.675781,22.714844 L0.753906,24.4375 L3.128906,27.289062 L0.644531,29.414062 L3.273438,31.648438 L1.046875,34.320312 L4.152344,36.113281 L2.46875,39.039062 L5.832031,40.285156 L4.699219,43.46875 L8.207031,44.128906 L7.621094,47.460938 L11.238281,47.496094 L11.238281,50.863281 L14.78125,50.277344 L15.402344,53.609375 L18.761719,52.402344 L19.933594,55.585938 L23.039062,53.792969 L24.753906,56.71875 L27.53125,54.414062 L29.6875,56.9375 L31.949219,54.265625 L34.617188,56.5 L36.445312,53.390625 L39.402344,55.074219 L40.644531,51.707031 L43.824219,52.839844 L44.480469,49.324219 L47.804688,49.910156 L47.839844,46.324219 C47.839844,46.324219 47.839844,46.324219 47.878906,46.289062 L51.238281,46.289062 L50.652344,42.8125 C50.652344,42.773438 50.691406,42.773438 50.691406,42.738281 L53.976562,42.152344 L52.808594,38.859375 C52.808594,38.820312 52.847656,38.785156 52.847656,38.746094 L55.949219,37.613281 L54.234375,34.574219 C54.234375,34.539062 54.269531,34.5 54.269531,34.464844 L57.011719,32.746094 Z" id="Path" fill="#AB5A2F" mask="url(#mask-6)"/>
                </g>
                <path d="M53.785156,28.71875 C53.785156,29.476562 53.75,30.234375 53.675781,30.988281 C53.601562,31.746094 53.488281,32.496094 53.34375,33.238281 C53.195312,33.984375 53.011719,34.71875 52.789062,35.445312 C52.570312,36.171875 52.316406,36.882812 52.027344,37.585938 C51.738281,38.285156 51.414062,38.972656 51.054688,39.640625 C50.699219,40.308594 50.308594,40.960938 49.890625,41.589844 C49.46875,42.222656 49.019531,42.832031 48.539062,43.417969 C48.058594,44.003906 47.550781,44.566406 47.015625,45.101562 C46.476562,45.636719 45.917969,46.148438 45.332031,46.628906 C44.746094,47.109375 44.140625,47.5625 43.511719,47.984375 C42.878906,48.40625 42.230469,48.792969 41.5625,49.152344 C40.894531,49.511719 40.210938,49.835938 39.511719,50.125 C38.8125,50.414062 38.101562,50.671875 37.375,50.890625 C36.652344,51.109375 35.917969,51.296875 35.175781,51.441406 C34.429688,51.589844 33.683594,51.703125 32.929688,51.777344 C32.175781,51.851562 31.421875,51.886719 30.664062,51.886719 C29.90625,51.886719 29.148438,51.851562 28.394531,51.777344 C27.644531,51.703125 26.894531,51.589844 26.152344,51.441406 C25.410156,51.296875 24.675781,51.109375 23.949219,50.890625 C23.226562,50.671875 22.511719,50.414062 21.8125,50.125 C21.113281,49.835938 20.429688,49.511719 19.761719,49.152344 C19.09375,48.792969 18.445312,48.40625 17.816406,47.984375 C17.1875,47.5625 16.578125,47.109375 15.992188,46.628906 C15.40625,46.148438 14.847656,45.636719 14.3125,45.101562 C13.777344,44.566406 13.269531,44.003906 12.789062,43.417969 C12.308594,42.832031 11.855469,42.222656 11.4375,41.589844 C11.015625,40.960938 10.625,40.308594 10.269531,39.640625 C9.914062,38.972656 9.589844,38.285156 9.300781,37.585938 C9.007812,36.882812 8.753906,36.171875 8.535156,35.445312 C8.316406,34.71875 8.132812,33.984375 7.984375,33.238281 C7.835938,32.496094 7.726562,31.746094 7.652344,30.988281 C7.578125,30.234375 7.539062,29.476562 7.539062,28.71875 C7.539062,27.960938 7.578125,27.203125 7.652344,26.449219 C7.726562,25.691406 7.835938,24.941406 7.984375,24.199219 C8.132812,23.453125 8.316406,22.71875 8.535156,21.992188 C8.753906,21.265625 9.007812,20.550781 9.300781,19.851562 C9.589844,19.152344 9.914062,18.464844 10.269531,17.796875 C10.625,17.125 11.015625,16.476562 11.4375,15.847656 C11.855469,15.214844 12.308594,14.605469 12.789062,14.019531 C13.269531,13.433594 13.777344,12.871094 14.3125,12.335938 C14.847656,11.796875 15.40625,11.289062 15.992188,10.808594 C16.578125,10.328125 17.1875,9.875 17.816406,9.453125 C18.445312,9.03125 19.09375,8.640625 19.761719,8.285156 C20.429688,7.925781 21.113281,7.601562 21.8125,7.3125 C22.511719,7.023438 23.226562,6.765625 23.949219,6.546875 C24.675781,6.324219 25.410156,6.140625 26.152344,5.992188 C26.894531,5.84375 27.644531,5.734375 28.394531,5.660156 C29.148438,5.585938 29.90625,5.546875 30.664062,5.546875 C31.421875,5.546875 32.175781,5.585938 32.929688,5.660156 C33.683594,5.734375 34.429688,5.84375 35.175781,5.992188 C35.917969,6.140625 36.652344,6.324219 37.375,6.546875 C38.101562,6.765625 38.8125,7.023438 39.511719,7.3125 C40.210938,7.601562 40.894531,7.925781 41.5625,8.285156 C42.230469,8.640625 42.878906,9.03125 43.511719,9.453125 C44.140625,9.875 44.746094,10.328125 45.332031,10.808594 C45.917969,11.289062 46.476562,11.796875 47.015625,12.335938 C47.550781,12.871094 48.058594,13.433594 48.539062,14.019531 C49.019531,14.605469 49.46875,15.214844 49.890625,15.847656 C50.308594,16.476562 50.699219,17.125 51.054688,17.796875 C51.414062,18.464844 51.738281,19.152344 52.027344,19.851562 C52.316406,20.550781 52.570312,21.265625 52.789062,21.992188 C53.011719,22.71875 53.195312,23.453125 53.34375,24.199219 C53.488281,24.941406 53.601562,25.691406 53.675781,26.449219 C53.75,27.203125 53.785156,27.960938 53.785156,28.71875 Z" id="Path" fill="#AB5A2F"/>
                <path d="M30.664062,52.070312 C17.804688,52.070312 7.355469,41.601562 7.355469,28.71875 C7.355469,15.835938 17.804688,5.367188 30.664062,5.367188 C43.523438,5.367188 53.96875,15.835938 53.96875,28.71875 C53.96875,41.601562 43.523438,52.070312 30.664062,52.070312 Z M30.664062,5.730469 C17.988281,5.730469 7.722656,16.054688 7.722656,28.71875 C7.722656,41.382812 18.023438,51.707031 30.664062,51.707031 C43.300781,51.707031 53.605469,41.382812 53.605469,28.71875 C53.605469,16.054688 43.339844,5.730469 30.664062,5.730469 Z" id="Shape" fill="#AB5A2F"/>
            </g>
        </g>
    </g>
</svg>